<svg xmlns="http://www.w3.org/2000/svg" viewBox="0 0 1157 1157" fill="none">
  <rect width="1157" height="1157" rx="185" fill="#0E1411"/>
  <g transform="translate(112 430)"><path d="M 646.0 10.0 L 646.0 286.0 L 698.0 286.0 L 699.0 174.0 L 869.0 174.0 L 870.0 286.0 L 922.0 286.0 L 922.0 11.0 L 870.0 10.0 L 869.0 122.0 L 699.0 122.0 L 698.0 11.0 Z M 12.0 286.0 L 74.0 286.0 L 250.0 61.0 L 273.0 61.0 L 275.0 63.0 L 275.0 232.0 L 273.0 234.0 L 195.0 234.0 L 195.0 286.0 L 531.0 286.0 L 554.0 281.0 L 571.0 273.0 L 590.0 257.0 L 599.0 244.0 L 607.0 223.0 L 609.0 199.0 L 604.0 177.0 L 595.0 160.0 L 580.0 145.0 L 591.0 132.0 L 601.0 110.0 L 603.0 100.0 L 603.0 76.0 L 600.0 63.0 L 589.0 42.0 L 574.0 27.0 L 559.0 18.0 L 534.0 11.0 L 229.0 10.0 L 13.0 282.0 Z M 326.0 175.0 L 530.0 174.0 L 542.0 179.0 L 549.0 185.0 L 554.0 193.0 L 556.0 205.0 L 553.0 217.0 L 549.0 223.0 L 542.0 229.0 L 527.0 234.0 L 327.0 234.0 Z M 326.0 63.0 L 328.0 61.0 L 522.0 61.0 L 533.0 64.0 L 544.0 73.0 L 549.0 84.0 L 550.0 93.0 L 544.0 109.0 L 536.0 117.0 L 524.0 122.0 L 327.0 122.0 Z" fill="#5CB85C" fill-rule="evenodd"/></g>
</svg>
